<svg viewBox="0 0 24 24" xmlns="http://www.w3.org/2000/svg"><g><path d="M20.719 8l0-.01c-.51.22-.73.81-.51 1.32l-.01-.01c2.02 4.53-.01 9.86-4.55 11.88 -4.54 2.02-9.87-.01-11.89-4.55 -1.05-2.34-1.05-5.02-.01-7.35l-.01 0c.22-.51 0-1.1-.51-1.33 -.51-.23-1.1-.01-1.33.5 0 0-.01 0-.01 0l-.01 0c-2.49 5.54 0 12.05 5.54 14.53 5.54 2.48 12.05-.01 14.53-5.55 .63-1.42.95-2.95.95-4.49l0-.01c0-1.56-.33-3.09-.97-4.5l-.01-.01c-.23-.51-.82-.73-1.33-.5Z"/><path d="M7.916 12.3l-.01 0c.17-.33.57-.45.89-.28 .11.06.2.15.27.27l-.01-.01c.23.49.83.71 1.33.47 .47-.23.69-.79.5-1.28l0 0c-.59-1.34-2.14-1.95-3.48-1.36 -.61.26-1.1.75-1.36 1.35l-.01 0c-.24.49-.03 1.09.47 1.33 .49.23 1.09.02 1.33-.48 0-.02.01-.04.02-.06Z"/><path d="M17.4 12.816l-.01 0c.5-.23.73-.82.51-1.32l0 0c-.59-1.34-2.14-1.95-3.48-1.36 -.61.26-1.1.75-1.36 1.35l-.01 0c-.21.51.04 1.09.55 1.3 .49.19 1.04-.03 1.27-.51l-.01 0c.17-.33.57-.45.89-.28 .11.06.2.15.27.27l0 0c.22.5.81.73 1.31.51Z"/><path d="M12 19.5l0-.01c1.92-.03 3.68-1.09 4.61-2.77l0-.01c.27-.48.11-1.09-.37-1.37s-1.09-.12-1.37.36l0-.01c-.58 1.06-1.68 1.74-2.89 1.77l-.01-.01c-1.22-.04-2.32-.71-2.89-1.78l0 0c-.28-.48-.9-.64-1.37-.37 -.48.27-.64.89-.37 1.36l0 0c.92 1.68 2.69 2.74 4.61 2.76Z"/><path d="M12 7c1.12 0 11-.1 11-3.5C23 .1 13.126 0 12 0 10.87 0 1 .1 1 3.5 1 6.9 10.874 7 12 7Zm0-5c4.33 0 7.352.7 8.52 1.27l0 0c.08.04.13.12.14.22l0 0c0 .09-.06.18-.15.22 -1.18.57-4.2 1.27-8.53 1.27 -4.34 0-7.36-.7-8.525-1.28l-.01-.01c-.13-.07-.18-.21-.12-.34 .02-.06.06-.1.11-.12 1.17-.58 4.19-1.28 8.52-1.28Z"/></g></svg>