<svg viewBox="0 0 24 24" xmlns="http://www.w3.org/2000/svg"><g stroke-linecap="round" stroke-width="1.5" stroke="#000" fill="none" stroke-linejoin="round"><path d="M18.048 15l-.01 0c-1.14 2.29-3.49 3.75-6.05 3.75"/><path d="M21.951 6.75l0 0c-2.91-5.5-9.72-7.6-15.21-4.7 -2.01 1.05-3.64 2.69-4.7 4.69"/><path d="M1.157 8.994l-.01 0c-1.66 5.98 1.85 12.18 7.84 13.84 5.98 1.65 12.18-1.86 13.84-7.85 .54-1.97.54-4.04-.01-6"/><path d="M12 6.75l-.01-.01c.1 3.2-2.42 5.89-5.63 6l-.01-.01c-3.21-.11-5.73-2.8-5.63-6Z"/><path d="M23.25 6.75l-.01-.01c.1 3.2-2.42 5.89-5.63 6l0 0c-3.21-.11-5.73-2.8-5.63-6Z"/></g></svg>