<?xml version="1.0" encoding="UTF-8"?>
<svg width="44px" height="44px" viewBox="0 0 44 44" version="1.1" xmlns="http://www.w3.org/2000/svg" xmlns:xlink="http://www.w3.org/1999/xlink">
    <title>Custom Preset</title>
    <g id="Custom-Preset" stroke="none" stroke-width="1" fill="none" fill-rule="evenodd">
        <g id="Group-Copy-3" transform="translate(0.000000, 2.612011)">
            <circle id="Oval" fill="#FCE802" cx="24.6120112" cy="19.3879888" r="19.3879888"></circle>
            <path d="M9.69399439,5.27309342 C14.6347023,5.27309342 18.7121246,8.96925868 19.3119849,13.7473129 L20.6442185,13.9197074 C21.7778292,9.82439682 25.5316938,6.8177362 29.9878017,6.8177362 C35.0281427,6.8177362 39.1700294,10.6644765 39.6378181,15.5823134 L41.7870396,15.8598244 C42.5110842,15.9534263 43.0221591,16.6162597 42.9285572,17.3403043 C42.8404614,18.0217581 42.2481327,18.5145604 41.5751111,18.4921427 L41.4480774,18.481822 L39.5292045,18.2343313 C38.7164135,22.7664037 34.7537558,26.205725 29.9878017,26.205725 C24.6436554,26.205725 20.3095358,21.8812868 20.29385,16.5408176 L19.2813271,16.4100467 C18.5844857,21.0795274 14.5574985,24.6610822 9.69399439,24.6610822 C4.34014912,24.6610822 0,20.3209331 0,14.9670878 C0,9.61324255 4.34014912,5.27309342 9.69399439,5.27309342 Z M29.9878017,9.46155285 C26.094096,9.46155285 22.9376239,12.6180249 22.9376239,16.5117306 C22.9376239,20.4054362 26.094096,23.5619083 29.9878017,23.5619083 C33.8815073,23.5619083 37.0379794,20.4054362 37.0379794,16.5117306 C37.0379794,12.6180249 33.8815073,9.46155285 29.9878017,9.46155285 Z M9.69399439,7.91691008 C5.80028874,7.91691008 2.64381665,11.0733822 2.64381665,14.9670878 C2.64381665,18.8607935 5.80028874,22.0172655 9.69399439,22.0172655 C13.5877,22.0172655 16.7441721,18.8607935 16.7441721,14.9670878 C16.7441721,11.0733822 13.5877,7.91691008 9.69399439,7.91691008 Z" id="Combined-Shape" fill="#A29BFE" fill-rule="nonzero"></path>
            <path d="M13.4350608,12.2062488 C14.1221853,12.2062488 14.6868628,12.7305072 14.7509178,13.4008486 L14.7569691,13.5281572 L14.7569691,16.5117306 C14.7569691,17.2418004 14.1651306,17.8336389 13.4350608,17.8336389 C12.7479363,17.8336389 12.1832588,17.3093806 12.1192038,16.6390392 L12.1131525,16.5117306 L12.1131525,13.5281572 C12.1131525,12.7980873 12.704991,12.2062488 13.4350608,12.2062488 Z" id="Line" fill="#181818" fill-rule="nonzero"></path>
            <path d="M26.4328625,13.2157378 C27.119987,13.2157378 27.6846644,13.7399962 27.7487195,14.4103376 L27.7547708,14.5376462 L27.7547708,17.4921398 C27.7547708,18.2222096 27.1629323,18.8140482 26.4328625,18.8140482 C25.745738,18.8140482 25.1810605,18.2897898 25.1170055,17.6194484 L25.1109542,17.4921398 L25.1109542,14.5376462 C25.1109542,13.8075763 25.7027927,13.2157378 26.4328625,13.2157378 Z" id="Line-Copy" fill="#181818" fill-rule="nonzero"></path>
            <path d="M19.4157242,30.9476268 L19.4157242,30.9365327 C21.5458056,30.9032501 23.4983803,29.7272677 24.5301385,27.8634464 L24.5301385,27.8523522 C24.8296812,27.3198319 24.6521744,26.6430873 24.119654,26.3324504 C23.5871337,26.0218135 22.9103891,26.1993203 22.5997522,26.7318407 L22.5997522,26.7207465 C21.9562901,27.8967289 20.7359309,28.6511328 19.3935359,28.6844153 L19.3824417,28.6733211 C18.0289524,28.6289444 16.8085933,27.8856348 16.1762254,26.6985581 C15.8655885,26.1660378 15.1777497,25.988531 14.6563235,26.2880737 C14.1238032,26.5876164 13.9462964,27.2754552 14.2458391,27.7968814 C15.2665031,29.6607026 17.2301719,30.8366851 19.3602533,30.8588734 L19.4157242,30.9476268 Z" id="Path" fill="#181818" fill-rule="nonzero" transform="translate(19.387989, 28.545306) rotate(6.000000) translate(-19.387989, -28.545306) "></path>
        </g>
    </g>
</svg>